<?xml version="1.0" encoding="utf-8"?>
<!-- Generator: Adobe Illustrator 16.0.0, SVG Export Plug-In . SVG Version: 6.00 Build 0)  -->
<!DOCTYPE svg PUBLIC "-//W3C//DTD SVG 1.1//EN" "http://www.w3.org/Graphics/SVG/1.1/DTD/svg11.dtd">
<svg version="1.1" id="Ebene_1" xmlns="http://www.w3.org/2000/svg" xmlns:xlink="http://www.w3.org/1999/xlink" x="0px" y="0px"
	 width="200px" height="200px" viewBox="0 0 200 200" enable-background="new 0 0 200 200" xml:space="preserve">
<circle cx="10" cy="100" r="5"/>
<circle cx="190" cy="100" r="5"/>
<circle cx="100" cy="190" r="5"/>
<circle cx="100" cy="10" r="5"/>
<circle cx="36.36" cy="163.639" r="5"/>
<circle cx="163.639" cy="36.36" r="5"/>
<circle cx="163.64" cy="163.639" r="5.001"/>
<circle cx="36.361" cy="36.36" r="5"/>
<circle cx="13.067" cy="123.294" r="5"/>
<circle cx="186.933" cy="76.707" r="5"/>
<circle cx="123.294" cy="186.933" r="5"/>
<circle cx="76.707" cy="13.067" r="5"/>
<circle cx="22.058" cy="145" r="5"/>
<circle cx="177.942" cy="55" r="5"/>
<circle cx="144.999" cy="177.942" r="5"/>
<circle cx="55" cy="22.058" r="5"/>
<circle cx="55" cy="177.942" r="5"/>
<circle cx="145" cy="22.058" r="5"/>
<circle cx="177.942" cy="145.001" r="5"/>
<circle cx="22.058" cy="55" r="5"/>
<circle cx="76.707" cy="186.934" r="5"/>
<circle cx="123.294" cy="13.066" r="5"/>
<circle cx="186.934" cy="123.294" r="4.999"/>
<circle cx="13.067" cy="76.706" r="5"/>

<defs>
	<g id="gondola">
		<line stroke="black" stroke-width="1" x1="0" y1="5" x2="0" y2="0"/>
		<rect x="-3" y="5" width="6" height="10" fill="black" stroke="black" />
		<ellipse cx="-3" cy="10" rx="2.5" ry="5.5" fill="black"/>
		<ellipse cx="3" cy="10" rx="2.5" ry="5.5" fill="black"/>
	</g>
</defs>
</svg>
